<svg id="Layer_1" data-name="Layer 1" xmlns="http://www.w3.org/2000/svg" viewBox="0 0 410 100"><defs><style>.cls-1{fill:#050505;}</style></defs><rect class="cls-1" y="47.5" width="25" height="5"/><rect class="cls-1" x="11.28" y="27.79" width="5" height="25" transform="translate(-28.71 43.17) rotate(-75)"/><rect class="cls-1" x="15.02" y="18.75" width="5" height="25" transform="translate(-18.3 30.8) rotate(-60)"/><rect class="cls-1" x="20.98" y="10.98" width="5" height="25" transform="translate(-9.73 23.48) rotate(-45)"/><rect class="cls-1" x="28.75" y="5.02" width="5" height="25" transform="translate(-4.58 17.97) rotate(-30)"/><rect class="cls-1" x="37.79" y="1.28" width="5" height="25" transform="translate(-2.19 10.9) rotate(-15)"/><rect class="cls-1" x="47.5" width="5" height="25"/><rect class="cls-1" x="47.5" width="5" height="25"/><rect class="cls-1" x="47.21" y="11.28" width="25" height="5" transform="translate(30.95 67.88) rotate(-75)"/><rect class="cls-1" x="56.25" y="15.02" width="25" height="5" transform="translate(19.2 68.3) rotate(-60)"/><rect class="cls-1" x="64.02" y="20.98" width="25" height="5" transform="translate(5.81 60.98) rotate(-45)"/><rect class="cls-1" y="47.5" width="25" height="5"/><rect class="cls-1" x="1.28" y="57.21" width="25" height="5" transform="translate(-14.98 5.6) rotate(-15)"/><rect class="cls-1" x="5.02" y="66.25" width="25" height="5" transform="translate(-32.03 17.97) rotate(-30)"/><rect class="cls-1" x="10.98" y="74.02" width="25" height="5" transform="translate(-47.23 39.02) rotate(-45)"/><rect class="cls-1" x="18.75" y="79.98" width="25" height="5" transform="translate(-55.8 68.3) rotate(-60)"/><rect class="cls-1" x="27.79" y="83.72" width="25" height="5" transform="translate(-53.42 102.83) rotate(-75)"/><rect class="cls-1" x="47.5" y="75" width="5" height="25"/><rect class="cls-1" x="47.5" y="75" width="5" height="25"/><rect class="cls-1" x="57.21" y="73.72" width="5" height="25" transform="translate(-20.28 18.39) rotate(-15)"/><rect class="cls-1" x="66.25" y="69.98" width="5" height="25" transform="translate(-32.03 45.42) rotate(-30)"/><rect class="cls-1" x="74.02" y="64.02" width="5" height="25" transform="translate(-31.69 76.52) rotate(-45)"/><path class="cls-1" d="M114.75,59.21a8.79,8.79,0,0,1-3.44-3.58,11.08,11.08,0,0,1-1.22-5.25,11.74,11.74,0,0,1,1.28-5.64A8.93,8.93,0,0,1,115,41a11.25,11.25,0,0,1,5.49-1.29,12.43,12.43,0,0,1,3.72.53,8.08,8.08,0,0,1,2.89,1.57V46a6.16,6.16,0,0,0-2.58-2.2,8.38,8.38,0,0,0-3.69-.81,8.05,8.05,0,0,0-3.81.85,5.84,5.84,0,0,0-2.47,2.45A7.86,7.86,0,0,0,113.7,50a7.53,7.53,0,0,0,.9,3.74,6.24,6.24,0,0,0,2.56,2.48,8,8,0,0,0,3.84.89,8.1,8.1,0,0,0,3.87-.9,5.89,5.89,0,0,0,2.57-2.63,6.52,6.52,0,0,1-1.93,5.14,8.23,8.23,0,0,1-5.68,1.74A10,10,0,0,1,114.75,59.21Z"/><path class="cls-1" d="M129.72,58.5c.13-.34.34-.85.62-1.54L137,40.18h3.5l6.67,16.9c.27.68.46,1.18.58,1.5l.58,1.48h-3.72c-.17-.45-.29-.79-.37-1s-.15-.46-.24-.7-.21-.57-.38-1v0l-5.37-14.8h.91l-5.4,14.88c-.15.46-.26.79-.34,1s-.15.44-.24.67-.2.56-.35,1h-3.7C129.38,59.36,129.58,58.84,129.72,58.5ZM134,52.05h9.31l.46,3h-10.2Z"/><path class="cls-1" d="M153,59.81a7.51,7.51,0,0,1-2.81-2.08V53.87a9.39,9.39,0,0,0,3,2.57,7.67,7.67,0,0,0,3.65.89,3.94,3.94,0,0,0,2.49-.72,2.44,2.44,0,0,0,.37-3.45A4.38,4.38,0,0,0,158,52l-3.52-1.48a6.6,6.6,0,0,1-2.9-2.1,5,5,0,0,1-.94-3,5.32,5.32,0,0,1,.85-2.94,5.66,5.66,0,0,1,2.32-2,7.59,7.59,0,0,1,3.34-.71,10,10,0,0,1,3.29.51,7.87,7.87,0,0,1,2.64,1.51v3.69a7.23,7.23,0,0,0-2.64-1.9,7.84,7.84,0,0,0-3.21-.71,4,4,0,0,0-1.57.28,2.31,2.31,0,0,0-1,.81,2.07,2.07,0,0,0-.37,1.24,2,2,0,0,0,.5,1.37,4.06,4.06,0,0,0,1.63,1L160,49a6.3,6.3,0,0,1,2.91,2.13,5.48,5.48,0,0,1,1,3.27,5.83,5.83,0,0,1-.89,3.22,5.75,5.75,0,0,1-2.53,2.12,9.12,9.12,0,0,1-3.77.74A9.44,9.44,0,0,1,153,59.81Z"/><path class="cls-1" d="M166.31,58.5c.13-.34.34-.85.62-1.54l6.62-16.78H177l6.68,16.9.58,1.5c.12.33.32.82.58,1.48h-3.72c-.17-.45-.29-.79-.37-1s-.15-.46-.24-.7-.21-.57-.38-1v0l-5.37-14.8h.91l-5.4,14.88c-.15.46-.27.79-.34,1l-.24.67c-.09.22-.21.56-.36,1h-3.69Zm4.31-6.45h9.32l.46,3H170.2Z"/><path class="cls-1" d="M194.23,40.18h7.05a11.2,11.2,0,0,1,5.14,1.16,8.88,8.88,0,0,1,3.65,3.41,10.25,10.25,0,0,1,1.35,5.37,10.25,10.25,0,0,1-1.35,5.37,8.94,8.94,0,0,1-3.65,3.41,11.32,11.32,0,0,1-5.14,1.16h-7.05ZM207,46.31A6.1,6.1,0,0,0,204.49,44a7.35,7.35,0,0,0-3.36-.78h-4.46l1-.63v15.2l-1-.71h4.46a7.35,7.35,0,0,0,3.36-.78A6.1,6.1,0,0,0,207,53.93a8.27,8.27,0,0,0,0-7.62Z"/><path class="cls-1" d="M215.65,40.18h12.47v3.06h-9.06V57h9.06v3.07H215.65Zm3.18,8h7.7v3.06h-7.7Z"/><path class="cls-1" d="M239.31,40.18h3.41V56.82h8.69v3.24h-12.1Z"/><path class="cls-1" d="M253.4,58.5c.13-.34.34-.85.63-1.54l6.62-16.78h3.49l6.68,16.9c.26.68.45,1.18.58,1.5s.31.82.58,1.48h-3.72c-.17-.45-.3-.79-.37-1l-.24-.7-.39-1v0l-5.36-14.8h.9l-5.39,14.88c-.16.46-.27.79-.34,1l-.24.67c-.09.22-.21.56-.36,1h-3.69C253.06,59.36,253.27,58.84,253.4,58.5Zm4.32-6.45H267l.45,3h-10.2Z"/><path class="cls-1" d="M284.76,59.21a8.83,8.83,0,0,1-3.43-3.58,11,11,0,0,1-1.23-5.25,11.86,11.86,0,0,1,1.28-5.64A9,9,0,0,1,285,41a11.24,11.24,0,0,1,5.48-1.29,12.33,12.33,0,0,1,3.72.53,8,8,0,0,1,2.9,1.57V46a6.28,6.28,0,0,0-2.58-2.2,8.4,8.4,0,0,0-3.7-.81,8,8,0,0,0-3.8.85,5.86,5.86,0,0,0-2.48,2.45,8,8,0,0,0-.85,3.77,7.43,7.43,0,0,0,.91,3.74,6.24,6.24,0,0,0,2.56,2.48,8,8,0,0,0,3.83.89,8.14,8.14,0,0,0,3.88-.9,5.94,5.94,0,0,0,2.57-2.63,6.52,6.52,0,0,1-1.93,5.14,8.23,8.23,0,0,1-5.68,1.74A10,10,0,0,1,284.76,59.21Z"/><path class="cls-1" d="M304.68,59.54A6.35,6.35,0,0,1,302,56.77a9.48,9.48,0,0,1-.94-4.41V40.18h3.41V52.36A5.8,5.8,0,0,0,305,55a3.93,3.93,0,0,0,1.56,1.69,4.83,4.83,0,0,0,2.47.6,4.76,4.76,0,0,0,2.45-.6A3.9,3.9,0,0,0,313,55a5.85,5.85,0,0,0,.54-2.59V40.18H317V52.36a8.22,8.22,0,0,1-2.09,6A7.84,7.84,0,0,1,309,60.49,9.11,9.11,0,0,1,304.68,59.54Z"/><path class="cls-1" d="M322,40.18h3.41V56.82h8.69v3.24H322Z"/><path class="cls-1" d="M332.77,40.18h16.28v3.18H332.77Zm6.45.22h3.38V60.06h-3.38Z"/><path class="cls-1" d="M355.92,59.54a6.46,6.46,0,0,1-2.73-2.77,9.61,9.61,0,0,1-.93-4.41V40.18h3.41V52.36a5.8,5.8,0,0,0,.54,2.6,3.93,3.93,0,0,0,1.56,1.69,4.78,4.78,0,0,0,2.47.6,4.72,4.72,0,0,0,2.44-.6,4,4,0,0,0,1.57-1.7,6,6,0,0,0,.54-2.59V40.18h3.4V52.36a8.21,8.21,0,0,1-2.08,6,7.86,7.86,0,0,1-5.87,2.13A9.16,9.16,0,0,1,355.92,59.54Z"/><path class="cls-1" d="M373.28,40.18h7.33a8,8,0,0,1,3.49.72,5.25,5.25,0,0,1,2.3,2,6.16,6.16,0,0,1,0,6.07,5.19,5.19,0,0,1-2.3,2,8.14,8.14,0,0,1-3.49.71h-5V48.9h4.52a4.89,4.89,0,0,0,2-.36,2.56,2.56,0,0,0,1.2-1A3,3,0,0,0,383.7,46a2.65,2.65,0,0,0-.89-2.17,4.15,4.15,0,0,0-2.71-.75h-4.78l1.37-1.14V60.06h-3.41Zm4.86,10.25,3.8-.2,5.68,7.1c.46.57.81,1,1.07,1.35s.57.74.95,1.21a.36.36,0,0,1,.07.09l.07.08h-4.14Z"/><path class="cls-1" d="M391.6,58.5c.13-.34.34-.85.63-1.54l6.61-16.78h3.5L409,57.08c.27.68.46,1.18.59,1.5s.31.82.58,1.48h-3.72c-.17-.45-.3-.79-.37-1l-.24-.7-.39-1v0l-5.37-14.8H401l-5.39,14.88c-.16.46-.27.79-.34,1s-.16.44-.25.67l-.35,1H391C391.26,59.36,391.47,58.84,391.6,58.5Zm4.32-6.45h9.32l.45,3h-10.2Z"/></svg>